<svg width="19" height="19" viewBox="0 0 19 19" fill="none" xmlns="http://www.w3.org/2000/svg">
<path fill-rule="evenodd" clip-rule="evenodd" d="M10.0422 0.636247C9.4023 0.2456 8.59771 0.2456 7.95785 0.636246L1.84886 4.36588C0.55931 5.15317 0.574879 7.03115 1.87731 7.79696L8.00924 11.4024C8.63635 11.7712 9.41423 11.7703 10.0405 11.4001L16.1338 7.79908C17.4328 7.03137 17.4462 5.15655 16.1584 4.37028L10.0422 0.636247ZM16.6031 9.47088C17.0832 9.19802 17.6937 9.36608 17.9666 9.84625C18.2199 10.2921 18.0931 10.8503 17.6893 11.1463L17.5912 11.2097L10.9966 14.9572C10.1669 15.4329 9.1542 15.4657 8.29637 15.0535L8.11504 14.9584L1.59824 11.207C1.11959 10.9314 0.954936 10.3201 1.23047 9.84142C1.48632 9.39696 2.03175 9.22324 2.4916 9.42129L2.59602 9.47365L9.10943 13.2231C9.34971 13.3601 9.64279 13.377 9.89825 13.2725L10.0052 13.2202L16.6031 9.47088ZM16.5061 13.1307C16.9863 12.8579 17.5967 13.0259 17.8696 13.5061C18.123 13.952 17.9962 14.5102 17.5923 14.8061L17.4942 14.8696L10.8997 18.617C10.0699 19.0928 9.05724 19.1255 8.19941 18.7133L8.01808 18.6182L1.50128 14.8668C1.02264 14.5913 0.85798 13.9799 1.13351 13.5013C1.38936 13.0568 1.9348 12.8831 2.39464 13.0811L2.49907 13.1335L9.01247 16.8829C9.25275 17.02 9.54583 17.0369 9.80129 16.9323L9.90821 16.8801L16.5061 13.1307Z" fill="#3F8CFF"/>
</svg>
